REM DIRINDEX 1\2,1\3,1\4,1\5
REM DIRNAME cjc004,folder01,folder02,folder03,folder04
TITLE ""
FILE "1Q_t_0999-1008.mp3" MP3
  TRACK 01 AUDIO
    TITLE "3:cjc004_3901"
    INDEX 01 00:00:00
  TRACK 02 AUDIO
    TITLE "0:"
    INDEX 01 00:01:13
  TRACK 03 AUDIO
    TITLE "4:cjc004_3902"
    INDEX 01 00:01:42
  TRACK 04 AUDIO
    TITLE "0:"
    INDEX 01 00:03:02
  TRACK 05 AUDIO
    TITLE "5:cjc004_3903"
    INDEX 01 00:03:23
  TRACK 06 AUDIO
    TITLE "0:"
    INDEX 01 00:07:45
  TRACK 07 AUDIO
    TITLE "3:cjc004_3904"
    INDEX 01 00:08:30
  TRACK 08 AUDIO
    TITLE "0:"
    INDEX 01 00:09:45
  TRACK 09 AUDIO
    TITLE "4:cjc004_3905"
    INDEX 01 00:09:69
  TRACK 10 AUDIO
    TITLE "0:"
    INDEX 01 00:11:70
  TRACK 11 AUDIO
    TITLE "5:cjc004_3906"
    INDEX 01 00:12:20
  TRACK 12 AUDIO
    TITLE "0:"
    INDEX 01 00:16:06
  TRACK 13 AUDIO
    TITLE "3:cjc004_3907"
    INDEX 01 00:16:57
  TRACK 14 AUDIO
    TITLE "0:"
    INDEX 01 00:17:69
  TRACK 15 AUDIO
    TITLE "4:cjc004_3908"
    INDEX 01 00:18:19
  TRACK 16 AUDIO
    TITLE "0:"
    INDEX 01 00:20:08
  TRACK 17 AUDIO
    TITLE "5:cjc004_3909"
    INDEX 01 00:20:34
  TRACK 18 AUDIO
    TITLE "0:"
    INDEX 01 00:24:57
  TRACK 19 AUDIO
    TITLE "3:cjc004_3910"
    INDEX 01 00:25:33
  TRACK 20 AUDIO
    TITLE "0:"
    INDEX 01 00:26:50
  TRACK 21 AUDIO
    TITLE "4:cjc004_3911"
    INDEX 01 00:26:71
  TRACK 22 AUDIO
    TITLE "0:"
    INDEX 01 00:28:15
  TRACK 23 AUDIO
    TITLE "5:cjc004_3912"
    INDEX 01 00:28:37
  TRACK 24 AUDIO
    TITLE "0:"
    INDEX 01 00:32:39
  TRACK 25 AUDIO
    TITLE "3:cjc004_3913"
    INDEX 01 00:33:15
  TRACK 26 AUDIO
    TITLE "0:"
    INDEX 01 00:34:28
  TRACK 27 AUDIO
    TITLE "4:cjc004_3914"
    INDEX 01 00:34:51
  TRACK 28 AUDIO
    TITLE "0:"
    INDEX 01 00:36:21
  TRACK 29 AUDIO
    TITLE "5:cjc004_3915"
    INDEX 01 00:36:46
  TRACK 30 AUDIO
    TITLE "0:"
    INDEX 01 00:41:30
  TRACK 31 AUDIO
    TITLE "3:cjc004_3916"
    INDEX 01 00:42:08
  TRACK 32 AUDIO
    TITLE "0:"
    INDEX 01 00:43:48
  TRACK 33 AUDIO
    TITLE "4:cjc004_3917"
    INDEX 01 00:43:70
  TRACK 34 AUDIO
    TITLE "0:"
    INDEX 01 00:45:22
  TRACK 35 AUDIO
    TITLE "5:cjc004_3918"
    INDEX 01 00:45:47
  TRACK 36 AUDIO
    TITLE "0:"
    INDEX 01 00:50:50
  TRACK 37 AUDIO
    TITLE "3:cjc004_3919"
    INDEX 01 00:51:26
  TRACK 38 AUDIO
    TITLE "0:"
    INDEX 01 00:52:43
  TRACK 39 AUDIO
    TITLE "4:cjc004_3920"
    INDEX 01 00:52:67
  TRACK 40 AUDIO
    TITLE "0:"
    INDEX 01 00:54:09
  TRACK 41 AUDIO
    TITLE "5:cjc004_3921"
    INDEX 01 00:54:32
  TRACK 42 AUDIO
    TITLE "0:"
    INDEX 01 00:58:52
  TRACK 43 AUDIO
    TITLE "3:cjc004_3922"
    INDEX 01 00:59:32
  TRACK 44 AUDIO
    TITLE "0:"
    INDEX 01 01:00:49
  TRACK 45 AUDIO
    TITLE "4:cjc004_3923"
    INDEX 01 01:00:72
  TRACK 46 AUDIO
    TITLE "0:"
    INDEX 01 01:02:22
  TRACK 47 AUDIO
    TITLE "5:cjc004_3924"
    INDEX 01 01:02:50
  TRACK 48 AUDIO
    TITLE "0:"
    INDEX 01 01:07:19
  TRACK 49 AUDIO
    TITLE "3:cjc004_3925"
    INDEX 01 01:07:66
  TRACK 50 AUDIO
    TITLE "0:"
    INDEX 01 01:08:66
  TRACK 51 AUDIO
    TITLE "4:cjc004_3926"
    INDEX 01 01:09:22
  TRACK 52 AUDIO
    TITLE "0:"
    INDEX 01 01:10:37
  TRACK 53 AUDIO
    TITLE "5:cjc004_3927"
    INDEX 01 01:10:59
  TRACK 54 AUDIO
    TITLE "0:"
    INDEX 01 01:15:11
  TRACK 55 AUDIO
    TITLE "3:cjc004_3928"
    INDEX 01 01:15:60
  TRACK 56 AUDIO
    TITLE "0:"
    INDEX 01 01:17:14
  TRACK 57 AUDIO
    TITLE "4:cjc004_3929"
    INDEX 01 01:17:41
  TRACK 58 AUDIO
    TITLE "0:"
    INDEX 01 01:19:21
  TRACK 59 AUDIO
    TITLE "5:cjc004_3930"
    INDEX 01 01:19:44
  TRACK 60 AUDIO
    TITLE "0:"
    INDEX 01 01:24:06
